<?xml version="1.0" encoding="UTF-8"?>
<svg xmlns="http://www.w3.org/2000/svg" width="1600" height="630" viewBox="0 0 1600 630" role="img" aria-label="/run main flow">
  <defs>
    <filter id="cardShadow" x="-10%" y="-10%" width="125%" height="140%">
      <feDropShadow dx="0" dy="2" stdDeviation="2.2" flood-color="#121212" flood-opacity="0.10"/>
    </filter>
  </defs>
  <rect width="1600" height="630" fill="#FAF8F5"/>
  <text x="800" y="44" text-anchor="middle" font-family="Helvetica, Arial, sans-serif" font-size="36" font-weight="600" fill="#262A30">/run main flow</text>
  <text x="800" y="76" text-anchor="middle" font-family="Helvetica, Arial, sans-serif" font-size="15" fill="#6E7680">State lives in files. Phases stay clear. Stop at freeze, review, and human smoke.</text>

  <rect x="56" y="118" width="464" height="436" rx="22" fill="#FFF6EC"/>
  <text x="80" y="154" font-family="Helvetica, Arial, sans-serif" font-size="20" font-weight="600" fill="#262A30">Design</text>
  <text x="80" y="178" font-family="Helvetica, Arial, sans-serif" font-size="14" fill="#6E7680">Explore and plan first</text>
  <rect x="560" y="118" width="464" height="436" rx="22" fill="#F5FAFF"/>
  <text x="584" y="154" font-family="Helvetica, Arial, sans-serif" font-size="20" font-weight="600" fill="#262A30">Build</text>
  <text x="584" y="178" font-family="Helvetica, Arial, sans-serif" font-size="14" fill="#6E7680">Still needs acceptance and review</text>
  <rect x="1080" y="118" width="464" height="436" rx="22" fill="#F4FAF4"/>
  <text x="1104" y="154" font-family="Helvetica, Arial, sans-serif" font-size="20" font-weight="600" fill="#262A30">Close</text>
  <text x="1104" y="178" font-family="Helvetica, Arial, sans-serif" font-size="14" fill="#6E7680">Needs human confirmation</text>
  <line x1="288.0" y1="290" x2="288.0" y2="308" stroke="#E67E30" stroke-width="3.5" stroke-linecap="round"/>
  <polygon points="288.0,315 282.0,305 294.0,305" fill="#E67E30"/>
  <line x1="288.0" y1="406" x2="288.0" y2="424" stroke="#E67E30" stroke-width="3.5" stroke-linecap="round"/>
  <polygon points="288.0,431 282.0,421 294.0,421" fill="#E67E30"/>
  <line x1="792.0" y1="290" x2="792.0" y2="308" stroke="#E67E30" stroke-width="3.5" stroke-linecap="round"/>
  <polygon points="792.0,315 786.0,305 798.0,305" fill="#E67E30"/>
  <line x1="792.0" y1="406" x2="792.0" y2="424" stroke="#E67E30" stroke-width="3.5" stroke-linecap="round"/>
  <polygon points="792.0,431 786.0,421 798.0,421" fill="#E67E30"/>
  <line x1="1312.0" y1="290" x2="1312.0" y2="308" stroke="#E67E30" stroke-width="3.5" stroke-linecap="round"/>
  <polygon points="1312.0,315 1306.0,305 1318.0,305" fill="#E67E30"/>
  <line x1="1312.0" y1="406" x2="1312.0" y2="424" stroke="#E67E30" stroke-width="3.5" stroke-linecap="round"/>
  <polygon points="1312.0,431 1306.0,421 1318.0,421" fill="#E67E30"/>
  <polyline points="470.0,476.0 540.0,476.0 540.0,244.0 602.0,244.0" fill="none" stroke="#E67E30" stroke-width="3.5" stroke-linecap="round" stroke-linejoin="round"/>
  <polygon points="611.0,244.0 601.0,238.0 601.0,250.0" fill="#E67E30"/>
  <polyline points="974.0,476.0 1052.0,476.0 1052.0,244.0 1122.0,244.0" fill="none" stroke="#E67E30" stroke-width="3.5" stroke-linecap="round" stroke-linejoin="round"/>
  <polygon points="1131.0,244.0 1121.0,238.0 1121.0,250.0" fill="#E67E30"/>
  <rect x="108.0" y="200" width="360" height="88" rx="14" fill="#FFFFFF" stroke="#D6CCC2" stroke-width="1.5" filter="url(#cardShadow)"/>
  <circle cx="140.0" cy="244.0" r="16.6" fill="#D56A1F"/>
  <circle cx="140.0" cy="244.0" r="16" fill="#E67E30"/>
  <g transform="translate(140.55 244.15) scale(0.95)"><path fill="none" stroke="#FFFFFF" stroke-width="2.0" stroke-linecap="round" stroke-linejoin="round" d="M0,-5.4 V5.4"/><path fill="none" stroke="#FFFFFF" stroke-width="2.0" stroke-linecap="round" stroke-linejoin="round" d="M0,-5.4 L-2.6,-2.9"/></g>
  <text x="166.0" y="244.0" dominant-baseline="central" font-family="Helvetica, Arial, sans-serif" font-size="23" font-weight="500" fill="#262A30">Bind</text>
  <rect x="108.0" y="316" width="360" height="88" rx="14" fill="#FFFFFF" stroke="#D6CCC2" stroke-width="1.5" filter="url(#cardShadow)"/>
  <circle cx="140.0" cy="360.0" r="16.6" fill="#D56A1F"/>
  <circle cx="140.0" cy="360.0" r="16" fill="#E67E30"/>
  <g transform="translate(140.1 360.2) scale(0.95)"><path fill="none" stroke="#FFFFFF" stroke-width="2.0" stroke-linecap="round" stroke-linejoin="round" d="M-3.6,-3.6 C-3.4,-6.2 3.6,-6.4 3.6,-3.0 C3.6,-0.3 0.2,1.0 -3.6,5.4 H3.6"/></g>
  <text x="166.0" y="360.0" dominant-baseline="central" font-family="Helvetica, Arial, sans-serif" font-size="23" font-weight="500" fill="#262A30">Explore</text>
  <rect x="108.0" y="432" width="360" height="88" rx="14" fill="#FFFFFF" stroke="#D6CCC2" stroke-width="1.5" filter="url(#cardShadow)"/>
  <circle cx="140.0" cy="476.0" r="16.6" fill="#D56A1F"/>
  <circle cx="140.0" cy="476.0" r="16" fill="#E67E30"/>
  <g transform="translate(140.15 476.15) scale(0.95)"><path fill="none" stroke="#FFFFFF" stroke-width="2.0" stroke-linecap="round" stroke-linejoin="round" d="M-3.2,-5.0 C-2.8,-6.4 3.6,-6.4 3.6,-3.6 C3.6,-1.3 0.4,-0.5 0.4,0.1 C0.4,0.7 3.8,1.3 3.8,4.0 C3.8,6.6 -3.4,6.6 -3.4,4.6"/></g>
  <text x="166.0" y="476.0" dominant-baseline="central" font-family="Helvetica, Arial, sans-serif" font-size="23" font-weight="500" fill="#262A30">Plan</text>
  <rect x="612.0" y="200" width="360" height="88" rx="14" fill="#FFECDC" stroke="#E67E30" stroke-width="2.5" filter="url(#cardShadow)"/>
  <circle cx="644.0" cy="244.0" r="16.6" fill="#D56A1F"/>
  <circle cx="644.0" cy="244.0" r="16" fill="#E67E30"/>
  <g transform="translate(644.35 244.1) scale(0.95)"><path fill="none" stroke="#FFFFFF" stroke-width="2.0" stroke-linecap="round" stroke-linejoin="round" d="M1.5,-5.4 V5.4"/><path fill="none" stroke="#FFFFFF" stroke-width="2.0" stroke-linecap="round" stroke-linejoin="round" d="M-3.8,0.85 H3.6"/><path fill="none" stroke="#FFFFFF" stroke-width="2.0" stroke-linecap="round" stroke-linejoin="round" d="M-3.8,0.85 L1.5,-5.4"/></g>
  <text x="670.0" y="244.0" dominant-baseline="central" font-family="Helvetica, Arial, sans-serif" font-size="23" font-weight="500" fill="#262A30">Freeze acceptance</text>
  <rect x="916.0" y="210" width="44" height="22" rx="8" fill="#fff" stroke="#E67E30" stroke-width="1"/>
  <text x="938.0" y="221" text-anchor="middle" dominant-baseline="central" font-family="Helvetica, Arial, sans-serif" font-size="12" font-weight="500" fill="#E67E30">gate</text>
  <rect x="612.0" y="316" width="360" height="88" rx="14" fill="#FFFFFF" stroke="#D6CCC2" stroke-width="1.5" filter="url(#cardShadow)"/>
  <circle cx="644.0" cy="360.0" r="16.6" fill="#D56A1F"/>
  <circle cx="644.0" cy="360.0" r="16" fill="#E67E30"/>
  <g transform="translate(644.05 360.2) scale(0.95)"><path fill="none" stroke="#FFFFFF" stroke-width="2.0" stroke-linecap="round" stroke-linejoin="round" d="M3.2,-5.4 H-3.0 V-0.25 H1.0 C4.0,-0.25 4.2,5.5 -0.2,5.5 C-3.0,5.5 -3.6,3.6 -3.4,2.6"/></g>
  <text x="670.0" y="360.0" dominant-baseline="central" font-family="Helvetica, Arial, sans-serif" font-size="23" font-weight="500" fill="#262A30">Execute</text>
  <rect x="612.0" y="432" width="360" height="88" rx="14" fill="#FFECDC" stroke="#E67E30" stroke-width="2.5" filter="url(#cardShadow)"/>
  <circle cx="644.0" cy="476.0" r="16.6" fill="#D56A1F"/>
  <circle cx="644.0" cy="476.0" r="16" fill="#E67E30"/>
  <g transform="translate(644.15 475.75) scale(0.95)"><circle fill="none" stroke="#FFFFFF" stroke-width="2.0" stroke-linecap="round" stroke-linejoin="round" cx="0" cy="1.7" r="3.4"/><path fill="none" stroke="#FFFFFF" stroke-width="2.0" stroke-linecap="round" stroke-linejoin="round" d="M-3.0,0.15 C-2.4,-4.3 3.2,-5.8 3.2,-3.4"/></g>
  <text x="670.0" y="476.0" dominant-baseline="central" font-family="Helvetica, Arial, sans-serif" font-size="21" font-weight="500" fill="#262A30">Implementation review</text>
  <rect x="916.0" y="442" width="44" height="22" rx="8" fill="#fff" stroke="#E67E30" stroke-width="1"/>
  <text x="938.0" y="453" text-anchor="middle" dominant-baseline="central" font-family="Helvetica, Arial, sans-serif" font-size="12" font-weight="500" fill="#E67E30">gate</text>
  <rect x="1132.0" y="200" width="360" height="88" rx="14" fill="#FFECDC" stroke="#E67E30" stroke-width="2.5" filter="url(#cardShadow)"/>
  <circle cx="1164.0" cy="244.0" r="16.6" fill="#D56A1F"/>
  <circle cx="1164.0" cy="244.0" r="16" fill="#E67E30"/>
  <g transform="translate(1164.35 244.25) scale(0.95)"><path fill="none" stroke="#FFFFFF" stroke-width="2.0" stroke-linecap="round" stroke-linejoin="round" d="M-3.6,-5.2 H3.6 L-0.5,5.4"/></g>
  <text x="1190.0" y="244.0" dominant-baseline="central" font-family="Helvetica, Arial, sans-serif" font-size="23" font-weight="500" fill="#262A30">Human smoke</text>
  <rect x="1436.0" y="210" width="44" height="22" rx="8" fill="#fff" stroke="#E67E30" stroke-width="1"/>
  <text x="1458.0" y="221" text-anchor="middle" dominant-baseline="central" font-family="Helvetica, Arial, sans-serif" font-size="12" font-weight="500" fill="#E67E30">gate</text>
  <rect x="1132.0" y="316" width="360" height="88" rx="14" fill="#FFFFFF" stroke="#D6CCC2" stroke-width="1.5" filter="url(#cardShadow)"/>
  <circle cx="1164.0" cy="360.0" r="16.6" fill="#D56A1F"/>
  <circle cx="1164.0" cy="360.0" r="16" fill="#E67E30"/>
  <g transform="translate(1164.0 360.05) scale(0.95)"><circle fill="none" stroke="#FFFFFF" stroke-width="2.0" stroke-linecap="round" stroke-linejoin="round" cx="0" cy="-2.55" r="2.75"/><circle fill="none" stroke="#FFFFFF" stroke-width="2.0" stroke-linecap="round" stroke-linejoin="round" cx="0" cy="2.65" r="3.05"/></g>
  <text x="1190.0" y="360.0" dominant-baseline="central" font-family="Helvetica, Arial, sans-serif" font-size="21" font-weight="500" fill="#262A30">Worktree disposition</text>
  <rect x="1132.0" y="432" width="360" height="88" rx="14" fill="#FFFFFF" stroke="#D6CCC2" stroke-width="1.5" filter="url(#cardShadow)"/>
  <circle cx="1164.0" cy="476.0" r="16.6" fill="#D56A1F"/>
  <circle cx="1164.0" cy="476.0" r="16" fill="#E67E30"/>
  <g transform="translate(1164.15 476.25) scale(0.95)"><circle fill="none" stroke="#FFFFFF" stroke-width="2.0" stroke-linecap="round" stroke-linejoin="round" cx="0" cy="-1.7" r="3.4"/><path fill="none" stroke="#FFFFFF" stroke-width="2.0" stroke-linecap="round" stroke-linejoin="round" d="M3.0,-0.15 C2.4,4.3 -3.2,5.8 -3.2,3.4"/></g>
  <text x="1190.0" y="476.0" dominant-baseline="central" font-family="Helvetica, Arial, sans-serif" font-size="23" font-weight="500" fill="#262A30">Close</text>
  <circle cx="66" cy="590" r="7" fill="#E67E30"/>
  <text x="82" y="595" font-family="Helvetica, Arial, sans-serif" font-size="14" fill="#6E7680">Orange cards are stop points: freeze acceptance, implementation review, human smoke</text>
</svg>